<?xml version="1.0" encoding="utf-8"?>
<svg version="1.1" xmlns:xlink="http://www.w3.org/1999/xlink" width="135px" height="133px" xmlns="http://www.w3.org/2000/svg">
  <defs>
    <filter x="133px" y="10px" width="135px" height="133px" filterUnits="userSpaceOnUse" id="filter99">
      <feOffset dx="0" dy="0" in="SourceAlpha" result="shadowOffsetInner" />
      <feGaussianBlur stdDeviation="5" in="shadowOffsetInner" result="shadowGaussian" />
      <feComposite in2="shadowGaussian" operator="atop" in="SourceAlpha" result="shadowComposite" />
      <feColorMatrix type="matrix" values="0 0 0 0 0  0 0 0 0 0  0 0 0 0 0  0 0 0 0.313725490196078 0  " in="shadowComposite" />
    </filter>
    <g id="widget100">
      <path d="M 115 75.4890243902439  C 114.859756097561 71.0012195121951  110.792682926829 66.3731707317073  106.44512195122 66.5134146341463  C 106.164634146341 66.5134146341463  74.890243902439 15.0439024390244  74.890243902439 15.0439024390244  C 76.7134146341463 13.5012195121951  77.2743902439024 11.8182926829268  77.2743902439024 9.29390243902439  C 77.2743902439024 4.52560975609756  73.4878048780488 0.598780487804877  68.719512195122 0.458536585365853  C 59.4634146341463 0.318292682926828  59.1829268292683 9.99512195121951  59.4634146341463 10.4158536585366  L 24.4024390243902 23.4585365853659  C 22.859756097561 21.2146341463415  20.6158536585366 20.3731707317073  17.8109756097561 20.3731707317073  C 12.9024390243902 20.3731707317073  8.97560975609756 24.3  8.97560975609756 29.2085365853658  C 8.97560975609756 33.1353658536585  11.0792682926829 36.5012195121951  14.5853658536585 37.6231707317073  L 6.59146341463415 71.2817073170732  C 2.66463414634146 72.1231707317073  0.140243902439024 75.6292682926829  0.140243902439024 79.8365853658537  C 0.140243902439024 84.7451219512195  4.06707317073171 88.6719512195122  8.97560975609756 88.6719512195122  C 11.640243902439 88.6719512195122  14.0243902439024 87.55  15.8475609756098 85.5865853658537  L 48.6646341463415 103.818292682927  L 48.6646341463415 104.098780487805  C 48.6646341463415 109.007317073171  52.5914634146341 112.934146341463  57.5 112.934146341463  C 62.8292682926829 112.934146341463  66.3353658536585 108.165853658537  65.7743902439024 103.537804878049  L 100.69512195122 83.0621951219512  C 102.237804878049 84.1841463414634  104.201219512195 84.3243902439024  106.164634146341 84.3243902439024  C 111.073170731707 84.3243902439024  115 80.3975609756098  115 75.4890243902439  Z M 63.8109756097561 9.01341463414634  C 63.8109756097561 6.76951219512195  65.7743902439024 4.66585365853658  68.1585365853659 4.66585365853658  C 70.5426829268293 4.66585365853658  72.5060975609756 6.62926829268293  72.5060975609756 9.01341463414634  C 72.5060975609756 11.3975609756098  70.5426829268293 13.3609756097561  68.1585365853659 13.3609756097561  C 65.7743902439024 13.3609756097561  63.8109756097561 11.3975609756098  63.8109756097561 9.01341463414634  Z M 65.7743902439024 17.5682926829268  L 61.2865853658537 50.3853658536585  L 45.2987804878049 41.1292682926829  L 65.7743902439024 17.5682926829268  C 66.0548780487805 17.5682926829268  65.3536585365854 17.5682926829268  65.7743902439024 17.5682926829268  Z M 63.109756097561 73.8060975609756  L 65.0731707317073 57.3975609756098  L 92.280487804878 72.6841463414634  L 63.109756097561 73.8060975609756  Z M 42.6341463414634 44.7756097560976  L 60.3048780487805 55.0134146341463  L 58.3414634146341 74.5073170731707  L 44.1768292682927 75.2085365853659  L 34.359756097561 54.8731707317073  L 42.6341463414634 44.7756097560976  Z M 25.8048780487805 27.3853658536585  L 61.1463414634146 14.4829268292683  C 61.4268292682927 14.9036585365854  61.8475609756098 15.1841463414634  61.9878048780488 15.6048780487805  L 41.7926829268293 39.0256097560976  L 26.0853658536585 30.05  C 26.0853658536585 29.6292682926829  26.0853658536585 29.2085365853658  26.0853658536585 28.9280487804878  C 26.0853658536585 28.5073170731707  26.0853658536585 27.8060975609756  25.8048780487805 27.3853658536585  Z M 24.5426829268293 34.1170731707317  L 24.8231707317073 33.8365853658537  L 39.2682926829268 41.9707317073171  L 31.9756097560976 50.3853658536585  L 24.5426829268293 34.1170731707317  Z M 17.390243902439 33.2756097560976  C 15.0060975609756 33.2756097560976  13.0426829268293 31.4524390243902  13.0426829268293 28.9280487804878  C 13.0426829268293 26.5439024390244  15.0060975609756 24.580487804878  17.390243902439 24.580487804878  C 19.7743902439024 24.580487804878  21.7378048780488 26.5439024390244  21.7378048780488 28.9280487804878  C 21.7378048780488 31.3121951219512  19.7743902439024 33.2756097560976  17.390243902439 33.2756097560976  Z M 13.0426829268293 79.6963414634146  C 13.0426829268293 82.0804878048781  11.0792682926829 84.0439024390244  8.69512195121951 84.0439024390244  C 6.3109756097561 84.0439024390244  4.34756097560976 82.0804878048781  4.34756097560976 79.6963414634146  C 4.34756097560976 77.3121951219512  6.3109756097561 75.3487804878049  8.69512195121951 75.3487804878049  C 11.0792682926829 75.3487804878049  13.0426829268293 77.3121951219512  13.0426829268293 79.6963414634146  Z M 29.1707317073171 54.0317073170732  L 13.6036585365854 72.1231707317073  C 12.9024390243902 71.7024390243902  12.3414634146341 71.4219512195122  11.359756097561 71.0012195121951  L 19.3536585365854 37.3426829268293  C 20.0548780487805 37.0621951219512  20.4756097560976 37.3426829268293  21.1768292682927 37.0621951219512  L 29.1707317073171 54.0317073170732  Z M 16.8292682926829 76.7512195121951  C 16.4085365853659 75.909756097561  16.8292682926829 75.909756097561  16.4085365853659 75.2085365853659  L 30.8536585365854 57.9585365853658  L 38.8475609756098 75.769512195122  L 16.8292682926829 76.7512195121951  Z M 49.3658536585366 98.3487804878049  C 49.2256097560976 98.769512195122  49.6463414634146 98.3487804878049  49.5060975609756 98.909756097561  L 18.0914634146341 81.519512195122  L 40.9512195121951 80.2573170731707  L 49.3658536585366 98.3487804878049  Z M 53.2926829268293 95.8243902439024  L 45.859756097561 80.1170731707317  L 57.5 79.4158536585366  L 55.5365853658537 95.1231707317073  C 54.6951219512195 95.4036585365854  53.9939024390244 95.5439024390244  53.2926829268293 95.8243902439024  Z M 61.5670731707317 103.958536585366  C 61.5670731707317 106.342682926829  59.6036585365854 108.306097560976  57.219512195122 108.306097560976  C 54.8353658536585 108.306097560976  52.8719512195122 106.342682926829  52.8719512195122 103.958536585366  C 52.8719512195122 101.574390243902  54.8353658536585 99.6109756097561  57.219512195122 99.6109756097561  C 59.6036585365854 99.6109756097561  61.5670731707317 101.574390243902  61.5670731707317 103.958536585366  Z M 97.75 79.5560975609756  L 64.3719512195122 99.05  C 63.25 97.5073170731707  61.7073170731707 96.2451219512195  59.7439024390244 95.5439024390244  L 61.9878048780488 79.4158536585366  L 97.0487804878049 77.5926829268293  C 97.3292682926829 78.2939024390244  97.469512195122 78.8548780487805  97.75 79.5560975609756  Z M 101.115853658537 67.4951219512195  C 99.8536585365854 68.1963414634146  98.5914634146341 69.4585365853659  97.890243902439 71.0012195121951  L 65.4939024390244 52.4890243902439  L 70.1219512195122 17.7085365853659  C 70.4024390243902 17.7085365853659  70.5426829268293 17.7085365853659  70.5426829268293 17.4280487804878  L 101.115853658537 67.4951219512195  Z M 109.951219512195 75.3487804878049  C 110.091463414634 77.5926829268293  108.128048780488 79.6963414634146  105.603658536585 79.6963414634146  C 103.219512195122 79.6963414634146  101.256097560976 77.7329268292683  101.256097560976 75.3487804878049  C 101.256097560976 72.9646341463415  103.219512195122 71.0012195121951  105.603658536585 71.0012195121951  C 107.987804878049 71.0012195121951  109.951219512195 72.9646341463415  109.951219512195 75.3487804878049  Z " fill-rule="nonzero" fill="#ffffff" stroke="none" transform="matrix(1 0 0 1 143 20 )" />
    </g>
  </defs>
  <g transform="matrix(1 0 0 1 -133 -10 )">
    <use xlink:href="#widget100" filter="url(#filter99)" />
    <use xlink:href="#widget100" />
  </g>
</svg>