<?xml version="1.0" encoding="utf-8"?>
<svg version="1.1" xmlns:xlink="http://www.w3.org/1999/xlink" width="360px" height="65px" xmlns="http://www.w3.org/2000/svg">
  <defs>
    <filter x="20px" y="311px" width="360px" height="65px" filterUnits="userSpaceOnUse" id="filter103">
      <feOffset dx="0" dy="0" in="SourceAlpha" result="shadowOffsetInner" />
      <feGaussianBlur stdDeviation="2.5" in="shadowOffsetInner" result="shadowGaussian" />
      <feComposite in2="shadowGaussian" operator="atop" in="SourceAlpha" result="shadowComposite" />
      <feColorMatrix type="matrix" values="0 0 0 0 1  0 0 0 0 1  0 0 0 0 1  0 0 0 0.8 0  " in="shadowComposite" />
    </filter>
    <g id="widget104">
      <path d="M 25.5 319  A 2.5 2.5 0 0 1 28 316.5 L 372 316.5  A 2.5 2.5 0 0 1 374.5 319 L 374.5 368  A 2.5 2.5 0 0 1 372 370.5 L 28 370.5  A 2.5 2.5 0 0 1 25.5 368 L 25.5 319  Z " fill-rule="nonzero" fill="#ffffff" stroke="none" fill-opacity="0" />
      <path d="M 25.5 319  A 2.5 2.5 0 0 1 28 316.5 L 372 316.5  A 2.5 2.5 0 0 1 374.5 319 L 374.5 368  A 2.5 2.5 0 0 1 372 370.5 L 28 370.5  A 2.5 2.5 0 0 1 25.5 368 L 25.5 319  Z " stroke-width="1" stroke="#ffffff" fill="none" />
    </g>
  </defs>
  <g transform="matrix(1 0 0 1 -20 -311 )">
    <use xlink:href="#widget104" filter="url(#filter103)" />
    <use xlink:href="#widget104" />
  </g>
</svg>