<?xml version="1.0" encoding="utf-8"?>
<svg version="1.1" xmlns:xlink="http://www.w3.org/1999/xlink" width="28px" height="28px" xmlns="http://www.w3.org/2000/svg">
  <defs>
    <filter x="313px" y="1732px" width="28px" height="28px" filterUnits="userSpaceOnUse" id="filter105">
      <feOffset dx="0" dy="1" in="SourceAlpha" result="shadowOffsetInner" />
      <feGaussianBlur stdDeviation="1" in="shadowOffsetInner" result="shadowGaussian" />
      <feComposite in2="shadowGaussian" operator="atop" in="SourceAlpha" result="shadowComposite" />
      <feColorMatrix type="matrix" values="0 0 0 0 0  0 0 0 0 0  0 0 0 0 0  0 0 0 0.349019607843137 0  " in="shadowComposite" />
    </filter>
    <g id="widget106">
      <path d="M 327 1733  C 333.72 1733  339 1738.28  339 1745  C 339 1751.72  333.72 1757  327 1757  C 320.28 1757  315 1751.72  315 1745  C 315 1738.28  320.28 1733  327 1733  Z " fill-rule="nonzero" fill="#ffffff" stroke="none" />
      <path d="M 327 1733.5  C 333.44 1733.5  338.5 1738.56  338.5 1745  C 338.5 1751.44  333.44 1756.5  327 1756.5  C 320.56 1756.5  315.5 1751.44  315.5 1745  C 315.5 1738.56  320.56 1733.5  327 1733.5  Z " stroke-width="1" stroke="#d9d9d9" fill="none" />
    </g>
  </defs>
  <g transform="matrix(1 0 0 1 -313 -1732 )">
    <use xlink:href="#widget106" filter="url(#filter105)" />
    <use xlink:href="#widget106" />
  </g>
</svg>