<?xml version="1.0" encoding="utf-8"?>
<svg version="1.1" xmlns:xlink="http://www.w3.org/1999/xlink" width="111px" height="108px" xmlns="http://www.w3.org/2000/svg">
  <defs>
    <filter x="672px" y="81px" width="111px" height="108px" filterUnits="userSpaceOnUse" id="filter107">
      <feOffset dx="0" dy="0" in="SourceAlpha" result="shadowOffsetInner" />
      <feGaussianBlur stdDeviation="5" in="shadowOffsetInner" result="shadowGaussian" />
      <feComposite in2="shadowGaussian" operator="atop" in="SourceAlpha" result="shadowComposite" />
      <feColorMatrix type="matrix" values="0 0 0 0 0  0 0 0 0 0  0 0 0 0 0  0 0 0 0.313725490196078 0  " in="shadowComposite" />
    </filter>
    <g id="widget108">
      <path d="M 91 58.7036351084242  C 90.8888888888889 55.1924602899581  87.6666666666666 51.5715612584151  84.2222222222222 51.6812854714921  C 84 51.6812854714921  59.2222222222222 11.4124992722099  59.2222222222222 11.4124992722099  C 60.6666666666667 10.2055329283622  61.1111111111111 8.88884237143749  61.1111111111111 6.91380653605035  C 61.1111111111111 3.18318329143021  58.1111111111111 0.110905325272441  54.3333333333333 0.00118111219538516  C 46.9999999999999 -0.108543100881685  46.7777777777778 7.46242760143567  46.9999999999999 7.79160024066687  L 19.2222222222222 17.9959520568337  C 18 16.2403646476007  16.2222222222223 15.5820193691383  14 15.5820193691383  C 10.1111111111111 15.5820193691383  7.00000000000001 18.6542973352961  7.00000000000001 22.4946447929933  C 7.00000000000001 25.5669227591511  8.66666666666664 28.2003038730006  11.4444444444444 29.0780975776171  L 5.11111111111113 55.4119087161122  C 2 56.0702539945746  0 58.8133593215012  0 62.1050857138131  C 0 65.9454331715103  3.11111111111113 69.0177111376681  7.00000000000001 69.0177111376681  C 9.11111111111114 69.0177111376681  11 68.1399174330516  12.4444444444444 66.6037784499727  L 38.4444444444444 80.8679261499909  L 38.4444444444444 81.087374576145  C 38.4444444444444 84.9277220338422  41.5555555555556 88  45.4444444444444 88  C 49.6666666666667 88  52.4444444444445 84.2693767553799  51.9999999999999 80.6484777238368  L 79.6666666666667 64.6287426145855  C 80.8888888888889 65.5065363192021  82.4444444444445 65.6162605322791  84 65.6162605322791  C 87.8888888888889 65.6162605322791  91 62.5439825661214  91 58.7036351084242  Z M 50.4444444444445 6.69435810989622  C 50.4444444444445 4.93877070066322  51.9999999999999 3.29290750450727  53.8888888888888 3.29290750450727  C 55.7777777777778 3.29290750450727  57.3333333333333 4.82904648758616  57.3333333333333 6.69435810989622  C 57.3333333333333 8.5596697322063  55.7777777777778 10.0958087152852  53.8888888888888 10.0958087152852  C 51.9999999999999 10.0958087152852  50.4444444444445 8.5596697322063  50.4444444444445 6.69435810989622  Z M 51.9999999999999 13.3875351075971  L 48.4444444444444 39.0630009676298  L 35.7777777777778 31.8212029045437  L 51.9999999999999 13.3875351075971  C 52.2222222222222 13.3875351075971  51.6666666666667 13.3875351075971  51.9999999999999 13.3875351075971  Z M 49.8888888888889 57.3869445514994  L 51.4444444444444 44.549211621483  L 73 56.5091508468829  L 49.8888888888889 57.3869445514994  Z M 33.6666666666667 34.6740324445473  L 47.6666666666667 42.6838999991729  L 46.1111111111111 57.9355656168847  L 34.8888888888889 58.48418668227  L 27.1111111111112 42.5741757860959  L 33.6666666666667 34.6740324445473  Z M 20.3333333333333 21.0682300229915  L 48.3333333333333 10.9736024199017  C 48.5555555555556 11.3027750591329  48.8888888888889 11.522223485287  49 11.8513961245182  L 33 30.1753397083877  L 20.5555555555555 23.1529900714557  C 20.5555555555555 22.8238174322245  20.5555555555555 22.4946447929933  20.5555555555555 22.2751963668392  C 20.5555555555555 21.946023727608  20.5555555555555 21.3974026622227  20.3333333333333 21.0682300229915  Z M 19.3333333333333 26.3349922506905  L 19.5555555555555 26.1155438245364  L 31 32.4795481830061  L 25.2222222222222 39.0630009676298  L 19.3333333333333 26.3349922506905  Z M 13.6666666666666 25.6766469722281  C 11.7777777777778 25.6766469722281  10.2222222222223 24.2502322022263  10.2222222222223 22.2751963668392  C 10.2222222222223 20.4098847445291  11.7777777777778 18.8737457614502  13.6666666666666 18.8737457614502  C 15.5555555555555 18.8737457614502  17.1111111111111 20.4098847445291  17.1111111111111 22.2751963668392  C 17.1111111111111 24.1405079891493  15.5555555555555 25.6766469722281  13.6666666666666 25.6766469722281  Z M 10.2222222222223 61.995361500736  C 10.2222222222223 63.8606731230461  8.66666666666664 65.396812106125  6.77777777777776 65.396812106125  C 4.88888888888888 65.396812106125  3.33333333333338 63.8606731230461  3.33333333333338 61.995361500736  C 3.33333333333338 60.130049878426  4.88888888888888 58.5939108953471  6.77777777777776 58.5939108953471  C 8.66666666666664 58.5939108953471  10.2222222222223 60.130049878426  10.2222222222223 61.995361500736  Z M 23 41.9158305076335  L 10.6666666666666 56.0702539945746  C 10.1111111111111 55.7410813553434  9.66666666666664 55.5216329291893  8.88888888888889 55.1924602899581  L 15.2222222222223 28.858649151463  C 15.7777777777778 28.6392007253089  16.1111111111111 28.858649151463  16.6666666666667 28.6392007253089  L 23 41.9158305076335  Z M 13.2222222222223 59.6911530261177  C 12.8888888888889 59.0328077476553  13.2222222222223 59.0328077476553  12.8888888888889 58.48418668227  L 24.3333333333333 44.9881084737913  L 30.6666666666667 58.9230835345783  L 13.2222222222223 59.6911530261177  Z M 38.9999999999999 76.5886818399854  C 38.8888888888889 76.9178544792166  39.2222222222222 76.5886818399854  39.1111111111111 77.0275786922937  L 14.2222222222223 63.4217762707379  L 32.3333333333333 62.4342583530443  L 38.9999999999999 76.5886818399854  Z M 42.1111111111111 74.6136460045983  L 36.2222222222222 62.3245341399673  L 45.4444444444444 61.7759130745819  L 43.8888888888889 74.065024939213  C 43.2222222222222 74.2844733653671  42.6666666666667 74.3941975784442  42.1111111111111 74.6136460045983  Z M 48.6666666666667 80.977650363068  C 48.6666666666667 82.842961985378  47.1111111111111 84.3791009684569  45.2222222222222 84.3791009684569  C 43.3333333333333 84.3791009684569  41.7777777777778 82.842961985378  41.7777777777778 80.977650363068  C 41.7777777777778 79.1123387407579  43.3333333333333 77.576199757679  45.2222222222222 77.576199757679  C 47.1111111111111 77.576199757679  48.6666666666667 79.1123387407579  48.6666666666667 80.977650363068  Z M 77.3333333333334 61.885637287659  L 50.8888888888889 77.1373029053708  C 50 75.9303365615231  48.7777777777778 74.9428186438295  47.2222222222222 74.3941975784442  L 49 61.7759130745819  L 76.7777777777777 60.3494983045801  C 77 60.8981193699654  77.1111111111111 61.3370162222737  77.3333333333334 61.885637287659  Z M 80 52.4493549630316  C 79 52.9979760284169  78 53.9854939461105  77.4444444444445 55.1924602899581  L 51.7777777777778 40.7088641637858  L 55.4444444444445 13.4972593206742  C 55.6666666666667 13.4972593206742  55.7777777777778 13.4972593206742  55.7777777777778 13.27781089452  L 80 52.4493549630316  Z M 87 58.5939108953471  C 87.1111111111111 60.3494983045801  85.5555555555555 61.995361500736  83.5555555555555 61.995361500736  C 81.6666666666667 61.995361500736  80.1111111111111 60.4592225176572  80.1111111111111 58.5939108953471  C 80.1111111111111 56.728599273037  81.6666666666667 55.1924602899581  83.5555555555555 55.1924602899581  C 85.4444444444445 55.1924602899581  87 56.728599273037  87 58.5939108953471  Z " fill-rule="nonzero" fill="#ffffff" stroke="none" transform="matrix(1 0 0 1 682 91 )" />
    </g>
  </defs>
  <g transform="matrix(1 0 0 1 -672 -81 )">
    <use xlink:href="#widget108" filter="url(#filter107)" />
    <use xlink:href="#widget108" />
  </g>
</svg>